<?xml version="1.0" encoding="UTF-8" standalone="no"?>
<!-- Created with Inkscape (http://www.inkscape.org/) -->

<svg
   viewBox="0 -75 237.06666 237.06666"
   version="1.1"
   id="svg1"
   inkscape:version="1.4 (86a8ad7, 2024-10-11)"
   xml:space="preserve"
   sodipodi:docname="have some simpati.svg"
   xmlns:inkscape="http://www.inkscape.org/namespaces/inkscape"
   xmlns:sodipodi="http://sodipodi.sourceforge.net/DTD/sodipodi-0.dtd"
   xmlns="http://www.w3.org/2000/svg"
   xmlns:svg="http://www.w3.org/2000/svg"><sodipodi:namedview
     id="namedview1"
     pagecolor="#404040"
     bordercolor="#000000"
     borderopacity="0.25"
     inkscape:showpageshadow="false"
     inkscape:pageopacity="0.0"
     inkscape:pagecheckerboard="0"
     inkscape:deskcolor="#d1d1d1"
     inkscape:document-units="mm"
     borderlayer="false"
     showguides="false"
     inkscape:zoom="1.07"
     inkscape:cx="326.63551"
     inkscape:cy="154.6729"
     inkscape:window-width="1920"
     inkscape:window-height="991"
     inkscape:window-x="-9"
     inkscape:window-y="-9"
     inkscape:window-maximized="1"
     inkscape:current-layer="layer1" /><defs
     id="defs1" /><g
     inkscape:label="Layer 1"
     inkscape:groupmode="layer"
     id="layer1"
     transform="translate(7.76969,-129.68706)"><rect
       style="fill:#ff0025;stroke:none;stroke-width:14.81230996;stroke-dasharray:none;stroke-opacity:1;paint-order:stroke fill markers;font-variation-settings:normal;opacity:1;vector-effect:none;fill-opacity:1;stroke-linecap:butt;stroke-linejoin:miter;stroke-miterlimit:4;stroke-dashoffset:0;-inkscape-stroke:none;stop-color:#000000;stop-opacity:1"
       id="rect8"
       width="237.06668"
       height="91.016678"
       x="-7.76969"
       y="129.68706" /><path
       style="-inkscape-font-specification:'Bebas Neue Bold';paint-order:fill markers stroke;fill:#ffffff"
       d="m 207.28766,138.33149 v 73.71747 h 12.95321 v -73.71747 z"
       id="path7" /><path
       style="-inkscape-font-specification:'Bebas Neue Bold';paint-order:fill markers stroke;fill:#ffffff"
       d="m 168.46732,138.33149 v 12.03855 h 11.71815 v 61.67892 h 12.95373 v -61.67892 h 11.72021 v -12.03855 z"
       id="path6" /><path
       style="-inkscape-font-specification:'Bebas Neue Bold';display:inline;paint-order:fill markers stroke;fill:#ffffff"
       d="m 144.36804,138.33149 -11.69334,73.71747 h 12.06696 l 1.93684,-13.0545 h 12.25506 l 1.93477,13.0545 h 13.08602 l -11.69334,-73.71747 z m 8.3876,19.56728 4.38888,29.57133 h -8.78034 z"
       id="path5" /><path
       style="-inkscape-font-specification:'Bebas Neue Bold';paint-order:fill markers stroke;fill:#ffffff"
       d="m 105.68229,138.33149 v 73.71747 h 12.95302 v -23.77632 c 17.9989,0 22.312,-16.09218 22.312,-24.97058 0,-8.8784 -4.31265,-24.97057 -22.312,-24.97057 z m 12.95302,13.15557 c 6.00185,0 9.3,5.16479 9.3,11.815 0,6.65021 -3.30001,11.815 -9.3,11.815 z"
       id="path4"
       sodipodi:nodetypes="cccczscczcc" /><path
       style="-inkscape-font-specification:'Bebas Neue Bold';paint-order:fill markers stroke;fill:#ffffff"
       d="m 53.130281,138.33149 v 73.71747 h 11.525912 v -41.08018 l 6.746358,41.08018 h 12.087634 l 6.124174,-40.80526 v 40.80526 H 101.95521 V 138.33149 H 84.740755 l -6.926709,46.2964 -7.47913,-46.2964 z"
       id="path3" /><path
       style="-inkscape-font-specification:'Bebas Neue Bold';paint-order:fill markers stroke;fill:#ffffff"
       d="m 36.687116,138.33149 v 73.71747 h 12.953215 v -73.71747 z"
       id="path2" /><path
       style="-inkscape-font-specification:'Bebas Neue Bold';paint-order:fill markers stroke;fill:#ffffff"
       d="m 19.11239,137.50932 c -5.602211,0 -10.0077177,1.65947 -12.9806029,5.02398 -2.9651272,3.28731 -4.3992147,7.98682 -4.3992147,13.94902 0,10.98522 5.6102096,16.81498 12.8646496,23.34691 6.751063,6.07868 9.044045,9.78738 9.044045,14.79168 0,2.20723 -0.464162,3.73286 -1.248503,4.67672 -0.78434,0.94387 -1.924168,1.43402 -3.687113,1.43402 -1.762943,0 -2.904323,-0.49015 -3.688664,-1.43402 -0.784341,-0.94386 -1.248503,-2.46949 -1.248503,-4.67672 v -6.02082 H 1.4256144 v 5.30045 c 0,5.96999 1.4755711,10.70698 4.5092854,14.05858 l 0.00207,0.004 0.00413,0.004 c 3.0418167,3.2875 7.4714232,4.90409 13.0700032,4.90409 5.59858,0 10.028187,-1.61659 13.070004,-4.90409 l 0.0041,-0.004 0.0021,-0.004 c 3.033715,-3.3516 4.507735,-8.08859 4.507735,-14.05858 0,-10.6037 -5.315611,-16.55107 -12.864184,-23.34784 -7.938995,-7.14831 -9.04657,-10.51201 -9.04657,-14.79046 0,-2.35315 0.473501,-3.91609 1.211295,-4.76663 l 0.0098,-0.01 0.0078,-0.0103 c 0.776334,-0.9509 1.853289,-1.42782 3.504696,-1.42782 1.651408,0 2.729914,0.47692 3.506246,1.42782 l 0.0078,0.0103 0.0098,0.01 c 0.737793,0.85054 1.209228,2.41348 1.209228,4.76663 v 3.86075 h 12.342916 v -3.14089 c 0,-5.9622 -1.433571,-10.6617 -4.398698,-13.94902 -2.972885,-3.36451 -7.380458,-5.02347 -12.98267,-5.02347 z"
       id="path1"
       sodipodi:nodetypes="ccsssssssccscccscccssscccscccsccsccc" /></g></svg>
