<?xml version="1.0" encoding="UTF-8" standalone="no"?>
<svg
   xmlns="http://www.w3.org/2000/svg"
   width="471.30225pt"
   height="471.30225pt"
   viewBox="0 -42 471.30225 471.30225">
  <g
     transform="translate(-4.1239842,-53.089564)">
    <path
       d="m 287.14,57.1 c 4.23,-2.7 9.4,-5.03 14.48,-3.55 4.51,1.71 6.07,6.99 5.96,11.41 0.02,55.14 0.01,110.28 0,165.42 52.16,0 104.32,-0.03 156.48,0.01 4.16,-0.02 9.17,1.38 10.81,5.64 1.72,5.06 -0.89,10.21 -3.19,14.62 -13.66,25.14 -27.93,49.95 -42.41,74.62 -4.3,5.73 -9.97,11.07 -17.12,12.8 -5.95,1.43 -12.11,1.38 -18.18,1.47 -17.31,0.06 -34.61,0.02 -51.92,0.03 -7.53,-0.03 -16,0.32 -21.94,5.57 -4.94,4.72 -4.33,12.35 -2.4,18.33 4.21,12.77 12.24,23.76 18.18,35.71 -6.12,-4.1 -12.04,-8.5 -17.69,-13.22 -17.58,-15.55 -33.67,-32.82 -47.27,-51.98 -40.79,-56.53 -61.89,-125.7 -65.73,-194.92 -0.67,-15.18 5.54,-31.79 19.12,-39.76 20.95,-14.06 41.89,-28.12 62.82,-42.2 z"
       style="opacity:1;fill:#00c89f" />
    <path
       d="m 4.75,167.66 c 2.16,-4.53 7.61,-5.93 12.22,-5.85 31.67,0.01 63.34,0 95.01,0.01 5.49,0.11 11.27,0.33 16.21,3.01 5.03,2.72 8.82,7.11 12.67,11.22 11.56,13.15 23.09,26.32 34.64,39.47 0.66,0.69 1.84,2.23 2.76,0.9 6.36,-6.89 12.38,-14.1 18.7,-21.04 5.28,33.64 18.29,65.77 35.88,94.81 22.41,36.7 51.86,68.91 85.36,95.77 5.65,4.72 11.57,9.12 17.69,13.22 3.82,4.17 7.47,8.51 11.14,12.81 2.76,3.2 4.64,7.83 2.91,11.96 -1.89,4.1 -6.72,5.77 -10.96,5.71 -31.99,0.03 -63.98,0 -95.96,0.02 -5.37,0 -11,-0.15 -15.9,-2.61 -5.14,-2.66 -9.09,-7.01 -12.96,-11.21 -11.37,-12.95 -22.75,-25.9 -34.09,-38.88 -0.86,-1.03 -1.9,-1.88 -3.01,-2.61 -12.06,13.5 -23.87,27.23 -35.89,40.77 -3.94,4.38 -7.98,8.9 -13.22,11.76 -4.88,2.56 -10.52,2.78 -15.9,2.78 C 80.03,429.66 48.01,429.69 16,429.67 11.4,429.8 5.93,427.84 4.48,423.05 3.08,418.16 6.05,413.62 9.19,410.18 42.4,371.99 75.66,333.84 109.05,295.81 75.61,257.3 41.84,219.08 8.46,180.52 5.34,177.14 2.96,172.26 4.75,167.66 Z"
       style="opacity:1;fill:#002cba" />
  </g>
</svg>
